<svg xmlns="http://www.w3.org/2000/svg" xmlns:xlink="http://www.w3.org/1999/xlink" width="500" zoomAndPan="magnify" viewBox="0 0 375 374.999991" height="500" preserveAspectRatio="xMidYMid meet" version="1.0"><defs><clipPath id="0aa099a98f"><path d="M 187.5 0 C 83.945312 0 0 83.945312 0 187.5 C 0 291.054688 83.945312 375 187.5 375 C 291.054688 375 375 291.054688 375 187.5 C 375 83.945312 291.054688 0 187.5 0 Z M 187.5 0 " clip-rule="nonzero"/></clipPath><clipPath id="307d3dbc7b"><path d="M 24.921875 43 L 348.953125 43 L 348.953125 331.777344 L 24.921875 331.777344 Z M 24.921875 43 " clip-rule="nonzero"/></clipPath></defs><g clip-path="url(#0aa099a98f)"><rect x="-37.5" width="450" fill="#000000" y="-37.499999" height="449.999989" fill-opacity="1"/></g><g clip-path="url(#307d3dbc7b)"><path fill="#ff0000" d="M 269.140625 237.328125 C 263.769531 239.074219 259.476562 242.566406 255.824219 247.097656 C 255.699219 247.253906 255.511719 247.328125 255.3125 247.300781 C 255.109375 247.273438 254.953125 247.15625 254.871094 246.96875 C 252.558594 241.625 249.34375 237.117188 244.636719 234.003906 C 244.410156 233.859375 244.324219 233.578125 244.421875 233.328125 C 244.519531 233.082031 244.769531 232.9375 245.035156 232.980469 C 249.296875 233.664062 253.074219 235.835938 256.371094 239.484375 C 260.519531 236.847656 264.738281 235.757812 269.027344 236.230469 C 269.292969 236.261719 269.496094 236.464844 269.523438 236.730469 C 269.550781 236.996094 269.394531 237.238281 269.136719 237.324219 Z M 187.496094 46.492188 L 187.429688 46.492188 L 187.410156 46.496094 L 187.382812 46.496094 L 187.367188 46.5 L 187.347656 46.5 L 187.339844 46.503906 L 187.324219 46.503906 L 187.320312 46.507812 L 187.300781 46.515625 L 187.296875 46.515625 L 187.277344 46.519531 L 187.261719 46.523438 L 187.257812 46.523438 L 187.238281 46.527344 L 187.199219 46.542969 L 187.179688 46.546875 L 187.15625 46.558594 L 187.117188 46.574219 L 187.113281 46.574219 L 187.097656 46.582031 L 187.078125 46.59375 L 187.074219 46.59375 L 187.058594 46.601562 L 187.054688 46.601562 L 187.039062 46.613281 L 187.03125 46.617188 L 187 46.640625 L 186.992188 46.644531 L 186.984375 46.652344 L 186.972656 46.660156 L 186.960938 46.671875 L 186.949219 46.675781 L 186.917969 46.707031 L 186.90625 46.714844 L 186.898438 46.722656 L 186.894531 46.722656 L 186.882812 46.734375 L 186.875 46.746094 L 186.871094 46.753906 L 186.839844 46.785156 L 186.832031 46.796875 L 186.820312 46.808594 L 186.8125 46.820312 L 186.804688 46.828125 L 186.789062 46.851562 L 186.777344 46.863281 L 186.761719 46.886719 L 186.753906 46.894531 L 186.75 46.90625 L 186.726562 46.941406 C 183.957031 51.105469 181.625 56.273438 179.964844 61.4375 C 178.578125 65.746094 177.640625 70.074219 177.292969 73.84375 C 168.988281 60.867188 157.023438 51.234375 144.101562 46.5 C 130.839844 41.640625 116.558594 41.925781 104.175781 49.023438 C 103.824219 49.179688 103.605469 49.546875 103.652344 49.945312 C 103.710938 50.441406 104.15625 50.792969 104.648438 50.734375 C 112.347656 49.8125 120.28125 50.859375 127.472656 53.117188 C 133.527344 55.015625 139.046875 57.769531 143.441406 60.921875 C 140.917969 60.222656 138.46875 59.835938 136.105469 59.726562 C 131.914062 59.53125 128 60.207031 124.433594 61.546875 C 124.1875 61.640625 123.984375 61.839844 123.898438 62.109375 C 123.746094 62.582031 124.003906 63.089844 124.476562 63.242188 C 127.832031 64.34375 130.324219 65.75 132.195312 67.546875 C 134.046875 69.328125 135.320312 71.53125 136.242188 74.226562 C 136.371094 74.601562 136.738281 74.859375 137.148438 74.832031 C 143.789062 74.40625 150.179688 76.410156 155.722656 79.734375 C 160.4375 82.558594 164.535156 86.34375 167.652344 90.398438 C 164.894531 88.390625 162.085938 86.664062 159.179688 85.25 C 154.683594 83.054688 149.964844 81.597656 144.882812 80.960938 C 144.589844 80.925781 144.289062 81.035156 144.085938 81.277344 C 143.765625 81.660156 143.816406 82.226562 144.195312 82.542969 C 146.222656 84.246094 147.535156 86.320312 148.179688 88.453125 C 148.5625 89.714844 148.707031 91 148.632812 92.238281 C 142.472656 91.105469 136.125 90.667969 129.828125 90.949219 C 111.863281 91.746094 94.265625 98.382812 82.40625 111.523438 C 81.433594 112.605469 80.488281 113.738281 79.585938 114.921875 C 79.378906 115.195312 79.335938 115.582031 79.515625 115.902344 C 79.761719 116.335938 80.308594 116.488281 80.738281 116.246094 C 83.429688 114.722656 86.128906 113.644531 88.921875 112.929688 C 90.613281 112.492188 92.34375 112.191406 94.136719 112.007812 C 87.289062 116.507812 81.984375 122.292969 77.90625 128.761719 C 72.332031 137.601562 69.054688 147.71875 67.261719 157.582031 C 67.183594 157.90625 67.292969 158.253906 67.5625 158.480469 C 67.945312 158.792969 68.511719 158.738281 68.828125 158.355469 C 72.714844 153.621094 76.375 150.386719 80.269531 148.394531 C 84.125 146.421875 88.253906 145.648438 93.121094 145.816406 C 93.539062 145.855469 93.941406 145.59375 94.066406 145.175781 C 96.710938 136.402344 100.59375 129.03125 106.058594 123.417969 C 110.46875 118.890625 115.933594 115.503906 122.628906 113.441406 C 119.65625 115.636719 117.085938 118.011719 114.867188 120.699219 C 111.644531 124.605469 109.179688 129.160156 107.316406 134.78125 C 107.210938 135.113281 107.296875 135.488281 107.570312 135.734375 C 107.9375 136.066406 108.507812 136.035156 108.839844 135.664062 C 113.164062 130.851562 116.761719 128.46875 120.464844 127.464844 C 124.164062 126.457031 128.058594 126.800781 132.910156 127.445312 C 133.34375 127.535156 133.792969 127.292969 133.941406 126.863281 C 135.734375 121.855469 137.445312 117.871094 139.9375 114.515625 C 141.757812 112.066406 144.015625 109.925781 147.050781 107.933594 C 146.226562 109.257812 145.578125 110.539062 145.058594 111.832031 C 144.101562 114.210938 143.589844 116.605469 143.191406 119.328125 C 143.15625 119.570312 143.222656 119.824219 143.390625 120.027344 C 143.707031 120.410156 144.273438 120.460938 144.652344 120.144531 C 149.105469 116.445312 154.304688 114.589844 159.644531 113.917969 C 160.894531 113.761719 162.148438 113.667969 163.402344 113.628906 L 162.703125 114.027344 C 153.246094 119.5 144.867188 127.070312 141.640625 133.257812 C 141.410156 133.695312 141.582031 134.238281 142.019531 134.46875 C 142.199219 134.558594 142.398438 134.589844 142.585938 134.558594 C 144.046875 134.304688 145.445312 134.164062 146.828125 134.214844 C 147.550781 134.242188 148.277344 134.324219 149.015625 134.464844 C 142.652344 138.359375 138.171875 143.082031 135.128906 148.140625 C 131.113281 154.820312 129.621094 162.074219 129.617188 168.773438 C 129.617188 169.265625 130.015625 169.671875 130.511719 169.671875 C 130.804688 169.671875 131.066406 169.53125 131.230469 169.3125 C 132.175781 168.054688 133.160156 167.199219 134.269531 166.636719 C 134.867188 166.328125 135.515625 166.101562 136.21875 165.9375 C 130.492188 174.851562 128.835938 185.660156 130.636719 196.414062 C 132.605469 208.179688 138.714844 219.894531 148.144531 228.996094 C 148.503906 229.339844 149.074219 229.328125 149.417969 228.96875 C 149.617188 228.761719 149.695312 228.480469 149.660156 228.21875 C 148.988281 223.660156 148.585938 219.03125 148.867188 214.644531 C 149.140625 210.304688 150.078125 206.195312 152.074219 202.625 C 152.261719 202.285156 152.207031 201.875 151.96875 201.597656 C 148.867188 197.660156 146.542969 192.367188 145.660156 186.417969 C 145.101562 182.691406 145.113281 178.703125 145.855469 174.632812 C 146.265625 177.710938 146.996094 180.214844 148.046875 182.429688 C 149.671875 185.847656 152.046875 188.535156 155.195312 191.5625 C 155.554688 191.90625 156.125 191.898438 156.46875 191.535156 C 156.644531 191.351562 156.730469 191.105469 156.71875 190.867188 C 156.472656 186.320312 156.839844 181.691406 158.195312 177.503906 C 159.34375 173.941406 161.210938 170.691406 164.019531 168.078125 C 164.382812 167.742188 164.402344 167.175781 164.066406 166.808594 C 160.714844 162.59375 158.808594 157.773438 158.296875 152.84375 C 157.890625 148.941406 158.351562 144.972656 159.65625 141.179688 C 160.082031 144.90625 160.964844 148.214844 162.375 151.207031 C 164.261719 155.191406 167.085938 158.59375 171.042969 161.628906 C 171.4375 161.929688 172 161.851562 172.304688 161.460938 C 172.488281 161.214844 172.53125 160.90625 172.441406 160.636719 C 169.585938 151.917969 169.074219 144.140625 171.460938 137.625 C 172.902344 133.683594 175.421875 130.179688 179.140625 127.1875 C 180.707031 130.457031 181.734375 134.097656 182.289062 138.199219 C 180.074219 139.382812 177.960938 141.335938 176.074219 144.0625 C 175.851562 144.382812 175.859375 144.789062 176.085938 145.101562 C 179.253906 149.460938 181.183594 154.539062 182.070312 160.609375 C 179.824219 161.828125 177.675781 163.824219 175.765625 166.59375 C 175.542969 166.914062 175.550781 167.320312 175.777344 167.636719 C 178.9375 171.980469 180.898438 177.027344 181.847656 183.023438 C 179.570312 184.28125 177.398438 186.316406 175.457031 189.132812 C 175.238281 189.453125 175.242188 189.859375 175.472656 190.171875 C 178.621094 194.5 180.617188 199.515625 181.621094 205.4375 C 179.3125 206.730469 177.117188 208.808594 175.152344 211.660156 C 174.933594 211.980469 174.9375 212.386719 175.167969 212.703125 C 178.3125 217.019531 180.332031 222 181.382812 227.859375 C 179.054688 229.191406 176.832031 231.304688 174.84375 234.195312 C 174.625 234.515625 174.628906 234.921875 174.859375 235.238281 C 178 239.546875 180.046875 244.488281 181.148438 250.285156 C 178.792969 251.65625 176.546875 253.800781 174.535156 256.726562 C 174.316406 257.046875 174.320312 257.453125 174.550781 257.769531 C 177.6875 262.0625 179.753906 266.980469 180.90625 272.71875 C 178.527344 274.117188 176.261719 276.300781 174.230469 279.265625 C 174.121094 279.421875 174.070312 279.597656 174.070312 279.777344 C 155.410156 280.339844 136.871094 282.085938 118.933594 285.007812 C 118.347656 284.730469 117.765625 284.453125 117.191406 284.160156 C 107.179688 279.210938 98.078125 272.371094 90.328125 264.203125 C 82.582031 256.035156 76.132812 246.558594 71.519531 236.296875 C 69.21875 231.167969 67.382812 225.839844 66.191406 220.414062 C 65.164062 215.855469 64.691406 211.203125 64.90625 206.699219 C 73.183594 210.984375 76.988281 217.839844 78.167969 226.914062 C 78.183594 227.023438 78.253906 227.101562 78.355469 227.136719 C 78.460938 227.167969 78.5625 227.136719 78.636719 227.058594 C 86.035156 218.796875 84.171875 204.183594 74.910156 199.066406 C 83.003906 197.234375 94.828125 201.382812 98.609375 210.796875 C 98.65625 210.910156 98.765625 210.980469 98.886719 210.96875 C 99.003906 210.953125 99.097656 210.867188 99.121094 210.746094 C 102.136719 194.367188 88.007812 185.109375 75.59375 186.519531 C 78.898438 182.179688 83.363281 178.710938 88.878906 175.695312 C 88.976562 175.644531 89.027344 175.546875 89.019531 175.441406 C 89.011719 175.332031 88.945312 175.246094 88.839844 175.210938 C 83.933594 173.496094 78.941406 174.03125 74.4375 175.667969 C 70.761719 177.046875 67.398438 179.234375 64.605469 182.011719 C 64.066406 178.828125 62.722656 175.660156 60.511719 172.992188 C 59.738281 172.085938 58.867188 171.226562 57.886719 170.476562 C 57.769531 170.390625 57.605469 170.410156 57.515625 170.523438 C 56.738281 171.480469 56.089844 172.523438 55.554688 173.589844 C 54.039062 176.703125 53.480469 180.097656 53.707031 183.316406 C 50.339844 181.277344 46.550781 179.941406 42.65625 179.472656 C 37.890625 178.945312 32.914062 179.597656 28.550781 182.421875 C 28.457031 182.480469 28.414062 182.582031 28.429688 182.6875 C 28.445312 182.796875 28.523438 182.875 28.628906 182.90625 C 34.699219 184.53125 39.855469 186.847656 44.089844 190.289062 C 31.695312 191.84375 20.148438 204.175781 26.941406 219.382812 C 26.988281 219.492188 27.101562 219.554688 27.222656 219.539062 C 27.34375 219.523438 27.433594 219.429688 27.449219 219.3125 C 28.90625 209.269531 39.414062 202.453125 47.714844 202.320312 C 39.898438 209.496094 41.566406 224.199219 50.773438 230.453125 C 50.855469 230.511719 50.957031 230.519531 51.042969 230.472656 C 51.132812 230.425781 51.1875 230.339844 51.1875 230.238281 C 51.4375 220.976562 52.210938 213.933594 57.628906 207.679688 C 57.453125 212.53125 57.945312 217.316406 58.902344 221.9375 C 60.132812 227.980469 62.054688 233.8125 64.460938 239.410156 C 69.300781 250.59375 76.066406 260.867188 84.304688 269.828125 C 90.5 276.5625 97.574219 282.539062 105.347656 287.472656 C 82.492188 292.046875 60.851562 298.605469 41.492188 307.152344 C 53.476562 303.261719 93.390625 296.128906 112.03125 296.066406 C 102.667969 299.039062 84.234375 307.085938 79.597656 311.460938 C 98.820312 304.691406 124.113281 298.898438 155.570312 300.929688 C 137.984375 304.25 131.855469 307.296875 122.621094 313.875 C 148.277344 306.785156 176.730469 314.96875 187.5 331.75 C 198.265625 314.972656 226.71875 306.785156 252.375 313.875 C 243.140625 307.296875 237.011719 304.25 219.425781 300.929688 C 250.886719 298.898438 276.179688 304.695312 295.398438 311.460938 C 290.761719 307.085938 272.328125 299.039062 262.964844 296.066406 C 281.605469 296.128906 321.519531 303.261719 333.503906 307.152344 C 314.144531 298.605469 292.507812 292.042969 269.648438 287.472656 C 277.421875 282.539062 284.496094 276.558594 290.691406 269.828125 C 298.929688 260.867188 305.699219 250.59375 310.535156 239.410156 C 312.941406 233.8125 314.863281 227.980469 316.09375 221.9375 C 317.050781 217.316406 317.546875 212.53125 317.367188 207.679688 C 322.785156 213.929688 323.558594 220.976562 323.808594 230.238281 C 323.808594 230.339844 323.863281 230.425781 323.953125 230.472656 C 324.039062 230.519531 324.140625 230.511719 324.222656 230.453125 C 333.429688 224.199219 335.101562 209.496094 327.28125 202.320312 C 335.582031 202.453125 346.089844 209.265625 347.546875 219.3125 C 347.5625 219.429688 347.65625 219.523438 347.773438 219.539062 C 347.894531 219.554688 348.007812 219.492188 348.054688 219.382812 C 354.851562 204.175781 343.300781 191.84375 330.90625 190.289062 C 335.140625 186.851562 340.296875 184.53125 346.371094 182.90625 C 346.472656 182.875 346.550781 182.796875 346.566406 182.6875 C 346.582031 182.582031 346.539062 182.480469 346.445312 182.421875 C 342.082031 179.597656 337.105469 178.945312 332.339844 179.472656 C 328.445312 179.941406 324.65625 181.277344 321.289062 183.316406 C 321.519531 180.097656 320.957031 176.703125 319.441406 173.589844 C 318.902344 172.523438 318.253906 171.480469 317.480469 170.523438 C 317.390625 170.410156 317.226562 170.390625 317.109375 170.476562 C 316.128906 171.222656 315.253906 172.085938 314.484375 172.992188 C 312.273438 175.660156 310.929688 178.832031 310.390625 182.011719 C 307.597656 179.234375 304.234375 177.046875 300.558594 175.667969 C 296.054688 174.03125 291.066406 173.496094 286.15625 175.210938 C 286.054688 175.242188 285.988281 175.332031 285.976562 175.441406 C 285.964844 175.546875 286.019531 175.644531 286.117188 175.695312 C 291.632812 178.710938 296.097656 182.179688 299.402344 186.519531 C 286.988281 185.109375 272.859375 194.371094 275.875 210.746094 C 275.894531 210.867188 275.992188 210.953125 276.109375 210.96875 C 276.230469 210.976562 276.339844 210.910156 276.386719 210.796875 C 280.167969 201.382812 291.992188 197.234375 300.085938 199.066406 C 290.824219 204.183594 288.960938 218.796875 296.359375 227.058594 C 296.433594 227.136719 296.539062 227.167969 296.640625 227.136719 C 296.742188 227.101562 296.8125 227.023438 296.828125 226.914062 C 298.007812 217.839844 301.8125 210.984375 310.089844 206.699219 C 310.304688 211.207031 309.828125 215.859375 308.804688 220.414062 C 307.613281 225.835938 305.777344 231.167969 303.480469 236.296875 C 298.863281 246.5625 292.414062 256.039062 284.667969 264.203125 C 276.917969 272.371094 267.816406 279.210938 257.804688 284.160156 C 257.230469 284.449219 256.648438 284.730469 256.0625 285.007812 C 238.125 282.085938 219.582031 280.339844 200.925781 279.777344 C 200.925781 279.597656 200.875 279.421875 200.765625 279.265625 C 198.734375 276.304688 196.46875 274.121094 194.089844 272.71875 C 195.242188 266.984375 197.308594 262.066406 200.445312 257.773438 C 200.671875 257.457031 200.679688 257.050781 200.460938 256.730469 C 198.449219 253.804688 196.203125 251.65625 193.847656 250.289062 C 194.949219 244.492188 196.996094 239.546875 200.136719 235.242188 C 200.367188 234.925781 200.371094 234.519531 200.152344 234.199219 C 198.164062 231.308594 195.941406 229.195312 193.613281 227.863281 C 194.664062 222.003906 196.683594 217.023438 199.828125 212.703125 C 200.058594 212.390625 200.0625 211.984375 199.84375 211.664062 C 197.878906 208.8125 195.683594 206.734375 193.375 205.441406 C 194.382812 199.519531 196.375 194.503906 199.523438 190.171875 C 199.753906 189.859375 199.757812 189.453125 199.539062 189.132812 C 197.597656 186.320312 195.425781 184.285156 193.148438 183.023438 C 194.097656 177.027344 196.058594 171.980469 199.21875 167.640625 C 199.445312 167.324219 199.453125 166.917969 199.230469 166.597656 C 197.320312 163.824219 195.175781 161.832031 192.925781 160.613281 C 193.8125 154.542969 195.746094 149.464844 198.910156 145.105469 C 199.136719 144.789062 199.144531 144.382812 198.921875 144.0625 C 197.035156 141.339844 194.921875 139.386719 192.707031 138.203125 C 193.261719 134.097656 194.289062 130.457031 195.855469 127.1875 C 199.574219 130.179688 202.09375 133.683594 203.535156 137.628906 C 205.921875 144.140625 205.410156 151.917969 202.554688 160.636719 C 202.46875 160.910156 202.507812 161.21875 202.691406 161.460938 C 202.996094 161.855469 203.558594 161.929688 203.953125 161.628906 C 207.914062 158.597656 210.738281 155.191406 212.621094 151.207031 C 214.035156 148.21875 214.914062 144.90625 215.34375 141.183594 C 216.644531 144.976562 217.105469 148.949219 216.703125 152.847656 C 216.1875 157.773438 214.285156 162.59375 210.929688 166.8125 C 210.59375 167.175781 210.617188 167.742188 210.976562 168.082031 C 213.789062 170.691406 215.652344 173.941406 216.804688 177.503906 C 218.15625 181.691406 218.527344 186.324219 218.28125 190.871094 C 218.269531 191.109375 218.351562 191.351562 218.53125 191.539062 C 218.875 191.898438 219.445312 191.910156 219.800781 191.566406 C 222.953125 188.539062 225.324219 185.851562 226.949219 182.429688 C 228 180.214844 228.734375 177.710938 229.144531 174.632812 C 229.882812 178.707031 229.894531 182.695312 229.339844 186.421875 C 228.453125 192.367188 226.132812 197.660156 223.03125 201.601562 C 222.792969 201.878906 222.734375 202.289062 222.925781 202.628906 C 224.921875 206.199219 225.859375 210.308594 226.132812 214.644531 C 226.410156 219.035156 226.011719 223.664062 225.339844 228.21875 C 225.300781 228.484375 225.382812 228.765625 225.582031 228.972656 C 225.925781 229.328125 226.496094 229.339844 226.851562 228.996094 C 236.285156 219.894531 242.394531 208.179688 244.359375 196.417969 C 246.160156 185.660156 244.507812 174.855469 238.78125 165.9375 C 239.484375 166.105469 240.128906 166.332031 240.726562 166.636719 C 241.839844 167.203125 242.820312 168.054688 243.765625 169.3125 C 243.929688 169.53125 244.191406 169.671875 244.484375 169.671875 C 244.980469 169.671875 245.382812 169.273438 245.382812 168.773438 C 245.378906 162.074219 243.882812 154.820312 239.867188 148.144531 C 236.828125 143.085938 232.347656 138.363281 225.984375 134.46875 C 226.722656 134.324219 227.449219 134.246094 228.171875 134.21875 C 229.550781 134.167969 230.953125 134.304688 232.410156 134.558594 C 232.597656 134.589844 232.796875 134.5625 232.980469 134.46875 C 233.417969 134.242188 233.589844 133.695312 233.359375 133.257812 C 230.132812 127.074219 221.753906 119.503906 212.296875 114.03125 L 211.597656 113.632812 C 212.851562 113.667969 214.105469 113.761719 215.351562 113.917969 C 220.695312 114.589844 225.894531 116.449219 230.34375 120.148438 C 230.722656 120.464844 231.289062 120.410156 231.605469 120.03125 C 231.773438 119.828125 231.839844 119.574219 231.804688 119.332031 C 231.410156 116.605469 230.894531 114.214844 229.9375 111.832031 C 229.417969 110.542969 228.773438 109.257812 227.945312 107.9375 C 230.980469 109.929688 233.238281 112.070312 235.058594 114.519531 C 237.550781 117.871094 239.257812 121.859375 241.054688 126.867188 C 241.203125 127.296875 241.652344 127.539062 242.085938 127.445312 C 246.9375 126.800781 250.832031 126.460938 254.53125 127.46875 C 258.230469 128.472656 261.832031 130.855469 266.15625 135.667969 C 266.488281 136.035156 267.058594 136.066406 267.425781 135.734375 C 267.699219 135.488281 267.785156 135.113281 267.679688 134.785156 C 265.816406 129.160156 263.351562 124.605469 260.128906 120.699219 C 257.910156 118.015625 255.339844 115.640625 252.367188 113.445312 C 259.0625 115.503906 264.527344 118.894531 268.9375 123.421875 C 274.402344 129.03125 278.285156 136.40625 280.929688 145.179688 C 281.054688 145.597656 281.457031 145.855469 281.875 145.816406 C 286.742188 145.652344 290.871094 146.425781 294.726562 148.398438 C 298.625 150.390625 302.28125 153.625 306.167969 158.359375 C 306.484375 158.742188 307.050781 158.792969 307.433594 158.480469 C 307.707031 158.257812 307.8125 157.90625 307.734375 157.585938 C 305.941406 147.722656 302.664062 137.605469 297.089844 128.765625 C 293.011719 122.296875 287.703125 116.507812 280.859375 112.011719 C 282.648438 112.195312 284.378906 112.5 286.074219 112.929688 C 288.863281 113.648438 291.5625 114.726562 294.253906 116.246094 C 294.683594 116.488281 295.234375 116.335938 295.476562 115.90625 C 295.65625 115.585938 295.617188 115.199219 295.40625 114.921875 C 294.503906 113.742188 293.5625 112.609375 292.585938 111.527344 C 280.726562 98.382812 263.125 91.746094 245.164062 90.949219 C 238.867188 90.671875 232.519531 91.109375 226.363281 92.238281 C 226.285156 91 226.433594 89.71875 226.816406 88.453125 C 227.457031 86.324219 228.769531 84.25 230.796875 82.546875 C 231.179688 82.230469 231.230469 81.660156 230.910156 81.28125 C 230.707031 81.039062 230.402344 80.929688 230.109375 80.964844 C 225.03125 81.597656 220.3125 83.058594 215.8125 85.25 C 212.910156 86.667969 210.097656 88.390625 207.339844 90.398438 C 210.460938 86.34375 214.558594 82.5625 219.269531 79.734375 C 224.8125 76.410156 231.207031 74.40625 237.84375 74.835938 C 238.257812 74.859375 238.625 74.605469 238.75 74.230469 C 239.675781 71.53125 240.945312 69.332031 242.800781 67.546875 C 244.667969 65.75 247.160156 64.347656 250.519531 63.246094 C 250.992188 63.09375 251.246094 62.585938 251.097656 62.113281 C 251.007812 61.84375 250.804688 61.644531 250.558594 61.550781 C 246.996094 60.210938 243.082031 59.535156 238.890625 59.726562 C 236.527344 59.839844 234.078125 60.222656 231.550781 60.925781 C 235.949219 57.769531 241.464844 55.015625 247.519531 53.117188 C 254.710938 50.863281 262.644531 49.816406 270.34375 50.738281 C 270.835938 50.792969 271.285156 50.441406 271.34375 49.949219 C 271.390625 49.550781 271.167969 49.179688 270.820312 49.023438 C 258.433594 41.929688 244.15625 41.640625 230.890625 46.503906 C 217.96875 51.234375 206.003906 60.867188 197.703125 73.84375 C 197.351562 70.074219 196.417969 65.746094 195.03125 61.4375 C 193.367188 56.273438 191.035156 51.109375 188.265625 46.945312 L 188.257812 46.933594 L 188.253906 46.921875 L 188.214844 46.863281 L 188.210938 46.855469 L 188.195312 46.839844 L 188.191406 46.828125 L 188.183594 46.820312 L 188.179688 46.820312 L 188.171875 46.808594 L 188.160156 46.796875 L 188.144531 46.773438 L 188.136719 46.769531 L 188.132812 46.761719 L 188.121094 46.753906 L 188.113281 46.746094 L 188.109375 46.734375 L 188.105469 46.734375 L 188.09375 46.722656 L 188.089844 46.722656 L 188.0625 46.695312 L 188.054688 46.691406 L 188.039062 46.675781 L 188.027344 46.671875 L 188.015625 46.660156 L 188.003906 46.652344 L 187.996094 46.644531 L 187.988281 46.640625 L 187.976562 46.628906 L 187.957031 46.617188 L 187.933594 46.605469 L 187.929688 46.605469 L 187.914062 46.59375 L 187.910156 46.59375 L 187.894531 46.582031 L 187.890625 46.582031 L 187.875 46.574219 L 187.855469 46.566406 L 187.835938 46.554688 L 187.8125 46.546875 L 187.753906 46.523438 L 187.738281 46.519531 L 187.734375 46.519531 L 187.695312 46.511719 L 187.691406 46.511719 L 187.671875 46.507812 L 187.667969 46.507812 L 187.648438 46.503906 L 187.628906 46.503906 L 187.625 46.496094 L 187.601562 46.496094 L 187.585938 46.492188 L 187.5625 46.492188 L 187.542969 46.488281 L 187.5 46.488281 Z M 105.851562 237.328125 C 105.597656 237.242188 105.4375 237 105.464844 236.734375 C 105.492188 236.464844 105.695312 236.261719 105.960938 236.234375 C 110.253906 235.757812 114.472656 236.847656 118.621094 239.488281 C 121.917969 235.839844 125.695312 233.667969 129.953125 232.980469 C 130.21875 232.941406 130.46875 233.082031 130.566406 233.332031 C 130.660156 233.582031 130.574219 233.859375 130.351562 234.007812 C 125.644531 237.125 122.429688 241.628906 120.117188 246.96875 C 120.035156 247.15625 119.878906 247.277344 119.675781 247.304688 C 119.476562 247.332031 119.289062 247.257812 119.164062 247.101562 C 115.511719 242.566406 111.214844 239.078125 105.847656 237.328125 Z M 105.851562 237.328125 " fill-opacity="1" fill-rule="evenodd"/></g></svg>